<?xml version="1.0" encoding="utf-8"?>
<!-- Generator: Adobe Illustrator 26.0.3, SVG Export Plug-In . SVG Version: 6.00 Build 0)  -->
<svg version="1.1" id="Layer_1" xmlns="http://www.w3.org/2000/svg" xmlns:xlink="http://www.w3.org/1999/xlink" x="0px" y="0px"
	 viewBox="0 0 25 25" style="enable-background:new 0 0 25 25;" xml:space="preserve">
<style type="text/css">
	.st0{fill-rule:evenodd;clip-rule:evenodd;}
</style>
<g>
	<path class="st0" d="M9.4,12.2C8,11.8,6.6,11.4,5,11.2c-0.3-1-0.5-2.1-0.6-3.3c0-0.4-0.1-0.9,0-1.2C4.5,6.1,5.6,5.1,6,4.7
		c0.7-0.7,1.4-1,2.1-1.4c0.6-0.2,1.9,0,2.6,0.2c0.7,0.2,1.4,0.5,1.9,0.8c0.2,1,0.3,2,0.5,3.1c0,0.3,0.2,0.8,0.1,1.1
		c-0.1,0.3-0.7,0.7-1,0.9C11.2,10.3,10.2,11.3,9.4,12.2L9.4,12.2z"/>
	<path d="M9.4,12.2L9.4,12.2C8,11.8,6.6,11.4,5,11.2c-0.3-1-0.5-2.1-0.6-3.3c0-0.1,0-0.2,0-0.2c0-0.3-0.1-0.7,0-1
		C4.5,6.1,5.6,5.1,6,4.7l0,0C6.7,4,7.4,3.7,8.1,3.3c0.2-0.1,0.4-0.1,0.7-0.1c0.6,0,1.4,0.1,1.9,0.3c0.7,0.2,1.3,0.5,1.9,0.8
		c0.2,0.9,0.3,1.8,0.4,2.8l0,0.3c0,0.1,0,0.2,0.1,0.3c0.1,0.3,0.1,0.5,0.1,0.7c0,0.2-0.4,0.5-0.7,0.7c-0.1,0.1-0.2,0.2-0.3,0.2
		C11.1,10.4,10.2,11.3,9.4,12.2L9.4,12.2z M8.8,3.2c-0.3,0-0.5,0-0.7,0.1C7.4,3.7,6.7,4,6,4.7l0,0C5.6,5.1,4.5,6.1,4.4,6.6
		c-0.1,0.3,0,0.7,0,1c0,0.1,0,0.2,0,0.2c0.1,1.2,0.3,2.2,0.6,3.3c1.6,0.3,3,0.7,4.3,1.1c0.8-0.9,1.8-1.9,2.9-2.8
		c0.1-0.1,0.2-0.2,0.3-0.2c0.3-0.2,0.6-0.5,0.7-0.7c0-0.2,0-0.5-0.1-0.7c0-0.1,0-0.2-0.1-0.3l0-0.3c-0.1-1-0.2-1.9-0.4-2.8
		c-0.5-0.4-1.2-0.6-1.9-0.8C10.2,3.4,9.4,3.2,8.8,3.2L8.8,3.2z"/>
	<path class="st0" d="M20.4,6.9c1.1,0.2,1.9,0.7,2.7,1.2c0.3,0.7,0.5,1.5,0.8,2.3c0.2,0.8,0.5,1.7,0.4,2.6c-0.1,0.6-0.5,1.6-0.8,2.1
		c-0.3,0.6-0.8,1.2-1.2,1.6c-0.9-0.5-1.9-0.9-2.9-1.3c-0.1-1.5-0.4-2.7-0.7-4c-0.1-0.3-0.4-0.9-0.3-1.2c0-0.4,0.8-1.3,1-1.6
		C19.8,8,20.1,7.5,20.4,6.9L20.4,6.9z"/>
	<path d="M22.3,16.8L22.3,16.8c-1-0.5-1.9-0.9-2.9-1.3c-0.1-1.5-0.4-2.8-0.7-4c0-0.1-0.1-0.3-0.1-0.4c-0.1-0.3-0.2-0.6-0.2-0.8
		c0-0.3,0.4-0.8,0.8-1.3c0.1-0.2,0.2-0.3,0.3-0.4c0.2-0.3,0.4-0.6,0.6-0.9c0.2-0.3,0.4-0.6,0.5-0.9c1.1,0.2,1.9,0.7,2.7,1.2
		c0.3,0.7,0.5,1.4,0.8,2.3c0,0.1,0,0.1,0.1,0.2c0.2,0.8,0.5,1.6,0.4,2.5c-0.1,0.6-0.6,1.6-0.8,2.1C23.1,15.8,22.7,16.4,22.3,16.8
		L22.3,16.8z M20.4,6.9c-0.2,0.3-0.4,0.6-0.5,0.9c-0.2,0.3-0.4,0.6-0.6,0.9c-0.1,0.1-0.2,0.2-0.3,0.4c-0.3,0.4-0.7,1-0.8,1.3
		c0,0.2,0.1,0.5,0.2,0.8c0.1,0.1,0.1,0.3,0.1,0.4c0.3,1.2,0.6,2.5,0.7,4c1,0.4,1.9,0.8,2.9,1.3c0.4-0.4,0.9-1,1.2-1.6
		c0.2-0.5,0.7-1.5,0.8-2.1c0.1-0.8-0.2-1.7-0.4-2.5c0-0.1,0-0.1-0.1-0.2c-0.2-0.9-0.5-1.6-0.8-2.3C22.4,7.6,21.5,7.2,20.4,6.9
		L20.4,6.9z"/>
	<path class="st0" d="M13.3,8.8c1.8,0.3,3.3,0.9,4.8,1.5c0.3,1.1,0.7,2.3,0.9,3.7c0.1,0.4,0.2,1,0.1,1.4c-0.1,0.3-0.5,0.7-0.8,1
		c-0.9,0.9-1.8,1.8-2.9,2.5c-1.8-0.3-3.5-0.8-4.9-1.5c-0.3-1.2-0.6-2.4-0.8-3.7c-0.1-0.4-0.3-0.9-0.3-1.2c0-0.3,0.5-0.7,0.8-1
		C11.2,10.5,12.4,9.6,13.3,8.8L13.3,8.8z"/>
	<path d="M15.5,18.9L15.5,18.9c-1.8-0.3-3.5-0.8-4.9-1.5c-0.3-1.2-0.6-2.5-0.8-3.7c0-0.1-0.1-0.3-0.1-0.4c-0.1-0.3-0.2-0.6-0.1-0.8
		c0-0.3,0.4-0.7,0.7-0.9c0,0,0.1-0.1,0.1-0.1c0.7-0.7,1.4-1.3,2.2-1.9C12.8,9.2,13,9,13.3,8.8c1.8,0.3,3.4,0.9,4.8,1.5
		c0.1,0.2,0.1,0.4,0.2,0.5c0.3,1,0.6,2,0.8,3.1c0,0.1,0,0.2,0,0.3c0.1,0.4,0.1,0.8,0.1,1.1c-0.1,0.3-0.4,0.5-0.6,0.8
		c-0.1,0.1-0.1,0.1-0.2,0.2l0,0C17.4,17.3,16.6,18.2,15.5,18.9L15.5,18.9z M13.3,8.8C13,9,12.8,9.2,12.5,9.5
		c-0.7,0.6-1.5,1.3-2.2,1.9c0,0-0.1,0.1-0.1,0.1c-0.3,0.3-0.7,0.7-0.7,0.9c0,0.2,0.1,0.5,0.1,0.8c0,0.1,0.1,0.3,0.1,0.4
		c0.2,1.1,0.5,2.4,0.8,3.7c1.5,0.7,3.1,1.2,4.9,1.5c1.1-0.7,2-1.5,2.9-2.5l0,0c0.1-0.1,0.1-0.1,0.2-0.2c0.3-0.3,0.6-0.5,0.6-0.8
		c0.1-0.3,0-0.7-0.1-1.1c0-0.1,0-0.2,0-0.3c-0.2-1.1-0.5-2.2-0.8-3.1c-0.1-0.2-0.1-0.4-0.2-0.5C16.7,9.7,15.1,9.1,13.3,8.8L13.3,8.8
		z"/>
	<path class="st0" d="M10.4,17.4c1.5,0.7,3.1,1.3,5,1.5c0.2,0.5,0.3,1,0.4,1.6c0.1,0.5,0.5,1.1,0.4,1.6c-0.1,0.5-1.1,1.1-1.7,1.3
		c-1.6,0.7-3.3,0.7-5,0.1c-0.7-0.2-1.8-0.7-2.1-1c-0.3-0.3-0.5-1-0.6-1.5c-0.2-0.6-0.2-1.2-0.3-1.8C7.9,18.7,9.2,18.1,10.4,17.4
		L10.4,17.4z"/>
	<path d="M12.1,24c-0.8,0-1.6-0.1-2.5-0.4c-0.8-0.3-1.8-0.7-2.1-1c-0.3-0.3-0.5-1-0.6-1.5c-0.2-0.6-0.2-1.2-0.3-1.8
		c1.3-0.5,2.6-1.1,3.9-1.8c1.3,0.6,3,1.2,5,1.5c0.1,0.3,0.2,0.7,0.3,1.1c0,0.2,0.1,0.3,0.1,0.5c0,0.1,0.1,0.3,0.2,0.5
		c0.1,0.4,0.3,0.8,0.2,1.1c-0.1,0.5-1.2,1.1-1.7,1.3C13.8,23.8,13,24,12.1,24L12.1,24z M10.4,17.4c-1.3,0.7-2.6,1.3-3.9,1.8
		c0.1,0.6,0.1,1.2,0.3,1.8c0.1,0.5,0.3,1.2,0.6,1.5c0.3,0.3,1.3,0.8,2.1,1c0.9,0.3,1.7,0.4,2.5,0.4c0.9,0,1.7-0.2,2.5-0.5
		c0.5-0.2,1.6-0.9,1.7-1.3c0.1-0.3-0.1-0.7-0.2-1.1c-0.1-0.2-0.1-0.3-0.2-0.5c0-0.2-0.1-0.3-0.1-0.5c-0.1-0.4-0.2-0.7-0.3-1.1
		C13.4,18.7,11.8,18,10.4,17.4L10.4,17.4z"/>
	<path class="st0" d="M17,1.4c0,0.6,0.1,1.3,0,1.8c-1.6,0.1-3.1,0.4-4.3,1c-1.1-0.7-2.6-1.1-4.4-1.1c0-0.6,0-1.3-0.1-1.8
		C10.6,0.2,14.8,0.2,17,1.4L17,1.4z"/>
	<path d="M12.7,4.2L12.7,4.2c-1.1-0.7-2.6-1.1-4.4-1.1c0-0.2,0-0.4,0-0.6c0-0.4,0-0.9-0.1-1.3c1.1-0.5,2.6-0.8,4.2-0.8
		c1.8,0,3.4,0.3,4.5,0.9c0,0.1,0,0.1,0,0.2c0,0.6,0.1,1.1-0.1,1.7C15.1,3.4,13.8,3.7,12.7,4.2L12.7,4.2z M12.5,0.5
		c-1.6,0-3.2,0.3-4.2,0.8c0,0.4,0.1,0.8,0.1,1.3c0,0.2,0,0.4,0,0.6c1.7,0,3.2,0.4,4.4,1.1c1.1-0.5,2.4-0.8,4.3-1
		c0.1-0.5,0.1-1.1,0-1.7c0-0.1,0-0.1,0-0.2C15.9,0.8,14.3,0.5,12.5,0.5L12.5,0.5z"/>
	<path class="st0" d="M17.3,1.5c2.9,1.2,4.9,3.2,6.2,6c-0.1,0.1-0.2,0.3-0.3,0.4c-0.8-0.5-1.7-0.9-2.7-1.2c-1-1.3-1.9-2.6-3.3-3.5
		C17.2,2.7,17.3,2.1,17.3,1.5L17.3,1.5z"/>
	<path d="M23.2,7.9L23.2,7.9c-0.8-0.5-1.7-0.9-2.7-1.2c-0.1-0.1-0.2-0.3-0.3-0.4c-0.9-1.1-1.7-2.3-3-3.1c0-0.1,0-0.3,0-0.4
		c0-0.4,0.1-0.9,0.1-1.4v0l0,0c2.9,1.2,4.9,3.2,6.2,6c-0.1,0.1-0.1,0.2-0.2,0.3C23.2,7.8,23.2,7.9,23.2,7.9L23.2,7.9z M17.3,1.5
		c0,0.5,0,1-0.1,1.4c0,0.1,0,0.3,0,0.4c1.2,0.8,2.1,1.9,3,3.1c0.1,0.1,0.2,0.3,0.3,0.4c1,0.3,1.9,0.7,2.7,1.2c0-0.1,0.1-0.1,0.1-0.2
		c0.1-0.1,0.1-0.2,0.2-0.3C22.2,4.7,20.1,2.7,17.3,1.5L17.3,1.5z"/>
	<path class="st0" d="M4.2,6.6c0.1,1.7,0.2,3.3,0.7,4.5c-0.8,1.1-1.5,2.3-1.7,4c-0.6,0.2-1.5,0.2-2.1,0c-0.8-1-0.7-3.1-0.5-4.6
		C0.8,9.1,1.4,7.7,2,6.7C2.6,6.4,3.5,6.5,4.2,6.6L4.2,6.6z"/>
	<path d="M2.2,15.3c-0.4,0-0.8,0-1.1-0.1c-0.9-1.2-0.6-3.8-0.5-4.6C0.8,9.2,1.3,7.8,2,6.7c0.3-0.1,0.7-0.2,1.1-0.2
		c0.3,0,0.7,0,1.1,0.1c0.1,1.5,0.2,3.2,0.7,4.5c-0.7,1.1-1.5,2.3-1.7,4C2.9,15.3,2.6,15.3,2.2,15.3L2.2,15.3z M3.1,6.5
		C2.6,6.5,2.3,6.6,2,6.7c-0.6,1-1.1,2.5-1.4,3.9c-0.1,0.8-0.5,3.4,0.5,4.6c0.3,0.1,0.7,0.1,1.1,0.1c0.4,0,0.7,0,1-0.1
		c0.2-1.7,1-2.9,1.7-4c-0.5-1.3-0.7-3-0.7-4.5C3.8,6.6,3.5,6.5,3.1,6.5L3.1,6.5z"/>
	<path class="st0" d="M24.5,13.3C24.5,13.3,24.6,13.4,24.5,13.3c-0.1,3-1.2,5.2-2.7,6.9c-0.2,0.2-0.3,0.6-0.7,0.6
		c-0.1-0.3,0.2-0.6,0.3-0.9c0.4-0.9,0.8-1.9,1-3.1C23.3,15.9,24,14.7,24.5,13.3L24.5,13.3z"/>
	<path d="M21.1,20.9L21.1,20.9c-0.1-0.2,0.1-0.5,0.2-0.7c0-0.1,0.1-0.1,0.1-0.2c0.5-1.1,0.8-2.1,1-3.1c1-1,1.7-2.4,2.1-3.5
		c0,0,0,0,0,0c0,0,0.1,0,0.1,0c-0.2,2.6-1.1,4.9-2.8,6.9c0,0-0.1,0.1-0.1,0.2C21.5,20.6,21.4,20.9,21.1,20.9L21.1,20.9L21.1,20.9z
		 M24.5,13.3C24.5,13.3,24.5,13.3,24.5,13.3c-0.5,1.1-1.1,2.5-2.1,3.5c-0.1,1-0.5,2-1,3.1c0,0.1-0.1,0.1-0.1,0.2
		c-0.1,0.2-0.3,0.5-0.2,0.7c0.3,0,0.4-0.2,0.6-0.4c0-0.1,0.1-0.1,0.1-0.2C23.5,18.2,24.4,16,24.5,13.3
		C24.6,13.4,24.5,13.3,24.5,13.3L24.5,13.3z"/>
	<path class="st0" d="M3.2,15.4C4,16.9,5,18.2,6.4,19.2c0,1.3,0.5,2.4,0.9,3.3c-0.5,0.1-1.2,0-1.7-0.1c-1.4-1-2.7-2.4-3.6-4.1
		c-0.5-0.9-0.9-1.7-0.9-3C1.7,15.5,2.6,15.5,3.2,15.4L3.2,15.4z"/>
	<path d="M6.7,22.6c-0.4,0-0.8-0.1-1.1-0.1l-0.1,0C4.1,21.4,2.9,20,2,18.4l0,0c-0.5-0.8-0.9-1.6-0.9-3v0l0,0c0.2,0,0.6,0.1,1,0.1
		c0.4,0,0.8,0,1-0.1C4,16.9,5,18.2,6.4,19.2c0,1.2,0.4,2.3,0.8,3.1c0,0.1,0.1,0.1,0.1,0.2l0,0l0,0C7.1,22.6,6.9,22.6,6.7,22.6
		L6.7,22.6z M1.1,15.4c0,1.3,0.4,2.1,0.9,3l0,0c0.9,1.6,2.1,3,3.6,4.1l0.1,0c0.3,0.1,0.7,0.1,1.1,0.1c0.2,0,0.4,0,0.5-0.1
		c0-0.1-0.1-0.1-0.1-0.2c-0.3-0.8-0.8-1.8-0.8-3.1c-1.4-1-2.5-2.3-3.2-3.9c-0.3,0.1-0.6,0.1-1,0.1C1.7,15.5,1.3,15.4,1.1,15.4
		L1.1,15.4z"/>
	<path class="st0" d="M12.3,24.5c0-0.1,0-0.2,0-0.2c1.7-0.4,3.2-0.9,4.1-2.1c1.8-0.1,3.4-0.5,4.4-1.4c0.5,0.2-0.2,0.6-0.6,0.9
		C18.4,23.3,15.5,24.8,12.3,24.5L12.3,24.5z"/>
	<path d="M13.1,24.6c-0.2,0-0.5,0-0.7,0c0,0,0-0.1,0-0.1c0,0,0-0.1,0-0.1c0,0,0,0,0,0l0,0c1.5-0.3,3.1-0.8,4.1-2.1
		c2-0.1,3.4-0.5,4.4-1.4c0.1,0,0.2,0.1,0.2,0.2c0,0.2-0.3,0.4-0.5,0.6c-0.1,0.1-0.1,0.1-0.2,0.1C19.3,22.6,16.6,24.6,13.1,24.6
		L13.1,24.6z M12.3,24.3C12.3,24.3,12.3,24.3,12.3,24.3c0,0,0,0.1,0,0.1c0,0,0,0.1,0,0.1c0.2,0,0.5,0,0.7,0c3.5,0,6.2-1.9,7.2-2.8
		c0.1,0,0.1-0.1,0.2-0.1c0.3-0.2,0.6-0.4,0.5-0.6c0-0.1-0.1-0.1-0.2-0.1c-1,0.8-2.4,1.3-4.4,1.4C15.4,23.5,13.8,24,12.3,24.3
		L12.3,24.3z"/>
	<path d="M12.5,24.6c-6.7,0-12.1-5.4-12.1-12.1c0-6.7,5.4-12.1,12.1-12.1s12.1,5.4,12.1,12.1C24.6,19.2,19.2,24.6,12.5,24.6
		L12.5,24.6z M12.5,0.7C6,0.7,0.7,6,0.7,12.5C0.7,19,6,24.3,12.5,24.3c6.5,0,11.8-5.3,11.8-11.8C24.3,6,19,0.7,12.5,0.7L12.5,0.7z"
		/>
</g>
</svg>
